<?xml version="1.0" encoding="utf-8"?>
<!-- Generator: Adobe Illustrator 23.0.3, SVG Export Plug-In . SVG Version: 6.00 Build 0)  -->
<svg version="1.1" id="Layer_1" xmlns="http://www.w3.org/2000/svg" x="0px"
     y="0px"
     viewBox="0 0 55 55" enable-background="new 0 0 55 55" xml:space="preserve">
<g>
	<path fill="#FFFFFF" d="M14.7,29.6c4.1,0,7.4-3.3,7.4-7.4c0-3.2-4.5-12.2-6.4-15.9c-0.4-0.7-1.6-0.7-2,0
		c-1.1,2.1-6.4,12.5-6.4,15.9C7.3,26.3,10.6,29.6,14.7,29.6z M14.7,9.3c3.2,6.3,5.2,11.3,5.2,12.9c0,2.9-2.3,5.2-5.2,5.2
		s-5.2-2.3-5.2-5.2C9.5,20.7,11.6,15.5,14.7,9.3z"/>
    <path fill="#FFFFFF" d="M37.4,29.6c4.1,0,7.4-3.3,7.4-7.4c0-3.2-4.5-12.2-6.4-15.9c-0.4-0.7-1.6-0.7-2,0C35.3,8.5,30,18.9,30,22.3
		C30,26.3,33.3,29.6,37.4,29.6z M37.4,9.3c3.2,6.3,5.2,11.3,5.2,12.9c0,2.9-2.3,5.2-5.2,5.2s-5.2-2.3-5.2-5.2
		C32.2,20.7,34.3,15.5,37.4,9.3z"/>
    <path fill="#FFFFFF" d="M7.6,42.4c5.6,1.9,8.7,1.6,12.4,0.5c0.6-0.2,1.2-0.4,1.9-0.7c1.5-0.6,3.1-1.3,5.1-1.3
		c1.5,0,3.4,0.6,5.5,1.3c0.6,0.2,1.3,0.4,1.9,0.6c2,0.7,3.8,1,5.3,1c2.3,0,4.1-0.6,5.9-1.2c0.4-0.1,0.8-0.3,1.1-0.4
		c0.6-0.2,0.9-0.8,0.7-1.4S46.6,40,46,40.2c-0.4,0.1-0.8,0.3-1.2,0.4c-2.8,0.9-5.4,1.8-9.8,0.2c-0.7-0.2-1.3-0.4-1.9-0.6
		c-2.3-0.8-4.4-1.4-6.2-1.4c-2.4,0-4.2,0.7-5.9,1.4c-0.6,0.2-1.2,0.5-1.7,0.6c-3.3,1-6,1.2-11-0.5c-0.6-0.2-1.2,0.1-1.4,0.7
		C6.7,41.6,7,42.2,7.6,42.4z"/>
    <path fill="#FFFFFF" d="M7.6,35.7c5.6,1.9,8.7,1.6,12.4,0.5c0.6-0.2,1.2-0.4,1.9-0.7c1.5-0.6,3.1-1.3,5.1-1.3
		c1.5,0,3.4,0.6,5.5,1.3c0.6,0.2,1.3,0.4,1.9,0.6c2,0.7,3.8,1,5.3,1c2.3,0,4.1-0.6,5.9-1.2c0.4-0.1,0.8-0.3,1.1-0.4
		c0.6-0.2,0.9-0.8,0.7-1.4c-0.2-0.6-0.8-0.9-1.4-0.7c-0.4,0.1-0.8,0.3-1.2,0.4c-2.8,0.9-5.4,1.8-9.8,0.2c-0.7-0.2-1.3-0.4-1.9-0.6
		c-2.3-0.8-4.4-1.4-6.2-1.4c-2.4,0-4.2,0.7-5.9,1.4c-0.6,0.2-1.2,0.5-1.7,0.6c-3.3,1-6,1.2-11-0.5c-0.6-0.2-1.2,0.1-1.4,0.7
		C6.7,34.8,7,35.5,7.6,35.7z"/>
    <path fill="#FFFFFF"
          d="M47.3,47H7.6c-0.6,0-1.1,0.5-1.1,1.1s0.5,1.1,1.1,1.1h39.7c0.6,0,1.1-0.5,1.1-1.1S47.9,47,47.3,47z"/>
</g>
</svg>
