<?xml version="1.0" encoding="utf-8"?>
<!-- Generator: Adobe Illustrator 23.0.3, SVG Export Plug-In . SVG Version: 6.00 Build 0)  -->
<svg version="1.1" id="Layer_1" xmlns="http://www.w3.org/2000/svg" x="0px"
     y="0px"
     viewBox="0 0 55 55" enable-background="new 0 0 55 55" xml:space="preserve">
<g>
	<path fill="#FFFFFF" d="M14.4,11.6C13.3,13.7,8,24.1,8,27.5c0,4.1,3.3,7.4,7.4,7.4c4.1,0,7.4-3.3,7.4-7.4c0-3.2-4.5-12.2-6.4-15.9
		C15.9,10.9,14.7,10.9,14.4,11.6z M20.5,27.5c0,2.9-2.3,5.2-5.2,5.2c-2.9,0-5.2-2.3-5.2-5.2c0-1.6,2.1-6.8,5.2-12.9
		C18.5,20.9,20.5,25.8,20.5,27.5z"/>
    <path fill="#FFFFFF" d="M37.1,11.6c-1.1,2.1-6.4,12.5-6.4,15.9c0,4.1,3.3,7.4,7.4,7.4s7.4-3.3,7.4-7.4c0-3.2-4.5-12.2-6.4-15.9
		C38.6,10.9,37.4,10.9,37.1,11.6z M43.2,27.5c0,2.9-2.3,5.2-5.2,5.2s-5.2-2.3-5.2-5.2c0-1.6,2.1-6.8,5.2-12.9
		C41.2,20.9,43.2,25.8,43.2,27.5z"/>
    <path fill="#FFFFFF" d="M46.7,45.5c-0.4,0.1-0.8,0.3-1.2,0.4c-2.8,0.9-5.4,1.8-9.8,0.2c-0.7-0.2-1.3-0.4-1.9-0.6
		c-2.3-0.8-4.4-1.4-6.2-1.4c-2.4,0-4.2,0.7-5.9,1.4c-0.6,0.2-1.2,0.5-1.7,0.6c-3.3,1-6,1.2-11-0.5c-0.6-0.2-1.2,0.1-1.4,0.7
		c-0.2,0.6,0.1,1.2,0.7,1.4c5.6,1.9,8.7,1.6,12.4,0.5c0.6-0.2,1.2-0.4,1.9-0.7c1.5-0.6,3.1-1.3,5.1-1.3c1.5,0,3.4,0.6,5.5,1.3
		c0.6,0.2,1.3,0.4,1.9,0.6c2,0.7,3.8,1,5.3,1c2.3,0,4.1-0.6,5.9-1.2c0.4-0.1,0.8-0.3,1.1-0.4c0.6-0.2,0.9-0.8,0.7-1.4
		C47.9,45.6,47.3,45.3,46.7,45.5z"/>
    <path fill="#FFFFFF" d="M46.7,38.7c-0.4,0.1-0.8,0.3-1.2,0.4c-2.8,0.9-5.4,1.8-9.8,0.2c-0.7-0.2-1.3-0.4-1.9-0.6
		c-2.3-0.8-4.4-1.4-6.2-1.4c-2.4,0-4.2,0.7-5.9,1.4c-0.6,0.2-1.2,0.5-1.7,0.6c-3.3,1-6,1.2-11-0.5c-0.6-0.2-1.2,0.1-1.4,0.7
		c-0.2,0.6,0.1,1.2,0.7,1.4c5.6,1.9,8.7,1.6,12.4,0.5c0.6-0.2,1.2-0.4,1.9-0.7c1.5-0.6,3.1-1.3,5.1-1.3c1.5,0,3.4,0.6,5.5,1.3
		c0.6,0.2,1.3,0.4,1.9,0.6c2,0.7,3.8,1,5.3,1c2.3,0,4.1-0.6,5.9-1.2c0.4-0.1,0.8-0.3,1.1-0.4c0.6-0.2,0.9-0.8,0.7-1.4
		C47.9,38.8,47.3,38.5,46.7,38.7z"/>
    <path fill="#FFFFFF" d="M47.3,8c0.6,0,1.1-0.5,1.1-1.1S48,5.8,47.3,5.8H7.7C7,5.8,6.6,6.3,6.6,6.9S7,8,7.7,8H47.3z"/>
</g>
</svg>
