<?xml version="1.0" encoding="utf-8"?>
<!-- Generator: Adobe Illustrator 23.0.3, SVG Export Plug-In . SVG Version: 6.00 Build 0)  -->
<svg version="1.1" id="Layer_1" xmlns="http://www.w3.org/2000/svg" x="0px"
     y="0px"
     viewBox="0 0 55 55" enable-background="new 0 0 55 55" xml:space="preserve">
<g>
	<path fill="#FFFFFF" d="M3.7,19.7h20.8c3.6,0,6.5-2.9,6.5-6.5s-2.9-6.5-6.5-6.5s-6.5,2.9-6.5,6.5c0,0.6,0.5,1.1,1.1,1.1
		s1.1-0.5,1.1-1.1c0-2.3,1.9-4.2,4.2-4.2s4.2,1.9,4.2,4.2s-1.9,4.2-4.2,4.2H3.7c-0.6,0-1.1,0.5-1.1,1.1S3.1,19.7,3.7,19.7z"/>
    <path fill="#FFFFFF" d="M3.7,25.9h39.6c5,0,9.1-4.1,9.1-9.1s-4.1-9.1-9.1-9.1c-5,0-9.1,4.1-9.1,9.1c0,0.6,0.5,1.1,1.1,1.1
		s1.1-0.5,1.1-1.1c0-3.8,3.1-6.9,6.9-6.9s6.9,3.1,6.9,6.9s-3.1,6.9-6.9,6.9H3.7c-0.6,0-1.1,0.5-1.1,1.1S3.1,25.9,3.7,25.9z"/>
    <path fill="#FFFFFF" d="M43.3,29.1H3.7c-0.6,0-1.1,0.5-1.1,1.1s0.5,1.1,1.1,1.1h39.6c3.8,0,6.9,3.1,6.9,6.9s-3.1,6.9-6.9,6.9
		c-3.8,0-6.9-3.1-6.9-6.9c0-0.6-0.5-1.1-1.1-1.1s-1.1,0.5-1.1,1.1c0,5,4.1,9.1,9.1,9.1c5,0,9.1-4.1,9.1-9.1S48.3,29.1,43.3,29.1z"/>
    <path fill="#FFFFFF" d="M24.5,35.3H3.7c-0.6,0-1.1,0.5-1.1,1.1s0.5,1.1,1.1,1.1h20.8c2.3,0,4.2,1.9,4.2,4.2c0,2.3-1.9,4.2-4.2,4.2
		s-4.2-1.9-4.2-4.2c0-0.6-0.5-1.1-1.1-1.1s-1.1,0.5-1.1,1.1c0,3.6,2.9,6.5,6.5,6.5s6.5-2.9,6.5-6.5S28.1,35.3,24.5,35.3z"/>
</g>
</svg>
