<?xml version="1.0" encoding="utf-8"?>
<!-- Generator: Adobe Illustrator 23.0.3, SVG Export Plug-In . SVG Version: 6.00 Build 0)  -->
<svg version="1.1" id="Layer_1" xmlns="http://www.w3.org/2000/svg" x="0px"
     y="0px"
     viewBox="0 0 23 23" enable-background="new 0 0 23 23" xml:space="preserve">
<g>
	<g>
		<g>
			<path d="M18.8,3.4c-2,0-3.7,1.6-3.7,3.7c0,0.2,0.2,0.4,0.4,0.4c0.2,0,0.4-0.2,0.4-0.4c0-1.6,1.3-2.9,2.9-2.9
				c1.6,0,2.9,1.3,2.9,2.9S20.5,10,18.8,10h-15c-0.2,0-0.4,0.2-0.4,0.4s0.2,0.4,0.4,0.4h15c2,0,3.7-1.6,3.7-3.7S20.9,3.4,18.8,3.4z"
            />
		</g>
	</g>
    <g>
		<g>
			<path d="M18.8,12.2H5.3c-0.2,0-0.4,0.2-0.4,0.4S5.1,13,5.3,13h13.6c1.6,0,2.9,1.3,2.9,2.9s-1.3,2.9-2.9,2.9s-2.9-1.3-2.9-2.9
				c0-0.2-0.2-0.4-0.4-0.4c-0.2,0-0.4,0.2-0.4,0.4c0,2,1.6,3.7,3.7,3.7s3.7-1.6,3.7-3.7S20.9,12.2,18.8,12.2z"/>
		</g>
	</g>
    <g>
		<g>
			<path d="M3.1,12.2H0.9c-0.2,0-0.4,0.2-0.4,0.4S0.7,13,0.9,13h2.2c0.2,0,0.4-0.2,0.4-0.4S3.3,12.2,3.1,12.2z"/>
		</g>
	</g>
    <g>
		<g>
			<path d="M2.7,7.5H0.9c-0.2,0-0.4,0.2-0.4,0.4s0.2,0.4,0.4,0.4h1.8c0.2,0,0.4-0.2,0.4-0.4S2.9,7.5,2.7,7.5z"/>
		</g>
	</g>
    <g>
		<g>
			<path d="M11.1,14.8H3.4c-0.2,0-0.4,0.2-0.4,0.4s0.2,0.4,0.4,0.4h7.7c1,0,1.8,0.8,1.8,1.8c0,1-0.8,1.8-1.8,1.8
				c-1,0-1.8-0.8-1.8-1.8c0-0.2-0.2-0.4-0.4-0.4s-0.4,0.2-0.4,0.4c0,1.4,1.2,2.6,2.6,2.6s2.6-1.2,2.6-2.6
				C13.7,16,12.5,14.8,11.1,14.8z"/>
		</g>
	</g>
    <g>
		<g>
			<path d="M11.1,3.1c-1.4,0-2.6,1.2-2.6,2.6C8.6,5.8,8.7,6,8.9,6s0.4-0.2,0.4-0.4c0-1,0.8-1.8,1.8-1.8c1,0,1.8,0.8,1.8,1.8
				c0,1-0.8,1.8-1.8,1.8H4.9c-0.2,0-0.4,0.2-0.4,0.4s0.2,0.4,0.4,0.4h6.2c1.4,0,2.6-1.2,2.6-2.6S12.5,3.1,11.1,3.1z"/>
		</g>
	</g>
</g>
</svg>
