<?xml version="1.0" encoding="utf-8"?>
<!-- Generator: Adobe Illustrator 23.0.3, SVG Export Plug-In . SVG Version: 6.00 Build 0)  -->
<svg version="1.1" id="Layer_1" xmlns="http://www.w3.org/2000/svg" xmlns:xlink="http://www.w3.org/1999/xlink" x="0px" y="0px"
	 viewBox="0 0 70 70" style="enable-background:new 0 0 70 70;" xml:space="preserve">
<g>
	<path d="M35.2,24.2h-0.3l0,0c-11.1,0.2-12,8.6-12,16.5c0,8.9,5,15.6,12,16h0.3h0.3l0,0c6.9-0.4,11.7-7,11.7-16
		C47.1,32.5,47.1,24.6,35.2,24.2z M36.3,26.9c7.8,0.6,8.2,5.2,8.2,13.9c0,7-3.3,12.3-8.2,13.2V26.9z M25.5,40.8
		c0-8.4,1.3-13.2,8.1-13.8v27C28.7,52.8,25.5,47.6,25.5,40.8z"/>
	<path d="M29,14.7c0.5,0.7,0.9,1.5,1,2.4c0.5-0.6,1.1-1,1.8-1.4c-0.2-0.7-0.5-1.4-1.2-2.3c-2.7-3.5-7.9-4.1-8.2-4.2
		c-0.3,0-0.6,0.1-0.8,0.2c-0.2,0.2-0.3,0.4-0.4,0.7c0,0.3,0,0.6,0.2,0.8s0.4,0.4,0.7,0.4C22.3,11.4,26.8,11.9,29,14.7z"/>
	<path d="M48.6,9.5c-0.2-0.2-0.5-0.3-0.8-0.2c-0.2,0-5.4,0.6-8.2,4.2c-0.7,0.9-1,1.6-1.2,2.3c0.7,0.4,1.3,0.8,1.7,1.4h0.1
		c0.2-0.9,0.5-1.8,1.1-2.5c2.2-2.8,6.7-3.4,6.7-3.4c0.3,0,0.5-0.2,0.7-0.4s0.3-0.5,0.2-0.8C48.9,9.9,48.8,9.7,48.6,9.5z"/>
	<path d="M56.6,15.9c-0.4-0.4-1.1-0.4-1.6,0l-2.2,2.2c-0.2,0.2-0.3,0.5-0.3,0.8v6.2l-3.8,3.8H47c0.3,0.7,0.6,1.5,0.8,2.2h1.3
		c0.3,0,0.6-0.1,0.8-0.3l4.5-4.5c0.2-0.2,0.3-0.5,0.3-0.8v-6.2l1.9-1.9C57.1,17,57.1,16.3,56.6,15.9z"/>
	<path d="M63.3,42.3h-4L53,35.9c-0.2-0.2-0.5-0.3-0.8-0.3h-3.7c0,0.7,0.1,1.4,0.1,2.1c0,0.1,0,0.1,0,0.2h3.1l6.4,6.4
		c0.2,0.2,0.5,0.3,0.8,0.3h4.5c0.6,0,1.1-0.5,1.1-1.1C64.5,42.8,64,42.3,63.3,42.3z"/>
	<path d="M56.4,58.6l-3.8-1.9v-8.9c0-0.3-0.1-0.6-0.3-0.8l-3.8-3.8c-0.1,0.8-0.2,1.6-0.3,2.3c0,0.1,0,0.3,0,0.4l2.2,2.2v9.1
		c0,0.4,0.2,0.8,0.6,1l4.5,2.2c0.2,0.1,0.3,0.1,0.5,0.1c0.4,0,0.8-0.2,1-0.6C57.2,59.6,57,58.9,56.4,58.6z"/>
	<path d="M21.4,43.3L17.7,47c-0.2,0.2-0.3,0.5-0.3,0.8v8.9l-3.8,1.9c-0.5,0.3-0.8,0.9-0.5,1.5s0.9,0.8,1.5,0.5l4.5-2.2
		c0.4-0.2,0.6-0.6,0.6-1v-9.1L22,46c0-0.1,0-0.1,0-0.2C21.6,45,21.5,44.2,21.4,43.3z"/>
	<path d="M21.5,35.6h-3.7c-0.3,0-0.6,0.1-0.8,0.3l-6.4,6.4h-4c-0.6,0-1.1,0.5-1.1,1.1s0.5,1.1,1.1,1.1h4.5c0.3,0,0.6-0.1,0.8-0.3
		l6.4-6.4h3.1C21.3,37.1,21.4,36.3,21.5,35.6z"/>
	<path d="M23.3,28.9h-1.8l-3.8-3.8v-6.2c0-0.3-0.1-0.6-0.3-0.8l-2.2-2.2c-0.4-0.4-1.1-0.4-1.6,0c-0.4,0.4-0.4,1.1,0,1.6l1.9,1.9v6.2
		c0,0.3,0.1,0.6,0.3,0.8l4.5,4.5c0.2,0.2,0.5,0.3,0.8,0.3h1.3C22.6,30.4,23,29.6,23.3,28.9z"/>
	<path d="M35,18.7c1.2,0,2.2,0.4,2.9,2.1c-0.7-0.1-1.5-0.1-2.3-0.2h-0.3c0,0,0,0-0.1,0l0,0h-0.5c-0.8,0-1.6,0.1-2.4,0.1
		C32.9,19.4,33.8,18.7,35,18.7 M35,16.6c-3.8,0-5.2,3.9-5.7,7.1c1.5-0.6,3.3-0.9,5.4-1l0,0h0.5h0.3l0,0c2.1,0.1,3.8,0.4,5.2,0.9
		C40.2,20.4,39.2,16.6,35,16.6L35,16.6z"/>
</g>
</svg>
