<?xml version="1.0" encoding="utf-8"?>
<!-- Generator: Adobe Illustrator 23.0.3, SVG Export Plug-In . SVG Version: 6.00 Build 0)  -->
<svg version="1.1" id="Layer_1" xmlns="http://www.w3.org/2000/svg" x="0px"
     y="0px"
     viewBox="0 0 100 70" enable-background="new 0 0 100 70" xml:space="preserve">
<g>
	<path fill="#FFFFFF" d="M54.8,43.6c-1.2,0-2.8,0.6-2.7,3.2c0,0.6,0.2,1.1,0.9,1.3c0.3,0.1,1,0,1-0.7c0,0,0-0.4,0.3-0.8
		c0.3-0.4,0.9-0.3,0.9-0.3c1,0.2,1.4-0.4,1.4-1.2c0-0.5-0.3-0.9-0.6-1.1C55.7,43.8,55.3,43.6,54.8,43.6z"/>
    <path fill="#FFFFFF" d="M45.2,43.6c1.2,0,2.8,0.6,2.7,3.2c0,0.6-0.2,1.1-0.9,1.3c-0.3,0.1-1,0-1-0.7c0,0,0-0.4-0.3-0.8
		c-0.3-0.4-0.9-0.3-0.9-0.3c-1,0.2-1.4-0.4-1.4-1.2c0-0.5,0.3-0.9,0.6-1.1C44.3,43.8,44.8,43.6,45.2,43.6z"/>
    <circle id="Oval_2_" fill="#FFFFFF" cx="41.5" cy="33.3" r="1.7"/>
    <circle fill="#FFFFFF" cx="58.5" cy="33.3" r="1.7"/>
    <path fill="#FFFFFF" d="M72.9,25.6c0.5-1,0.5-2.1,0.1-3.1c-0.4-1-1.2-1.9-2.2-2.3c-2.4-1.2-5.3-1.3-7.8-0.3l-0.7,0.3l0.8-2.6
		c0.2-0.7-0.1-1.5-0.7-2.1c-0.6-0.5-1.4-0.7-2.1-0.4l-3.5,1.4l-0.2-0.1c-4.2-2-9-2-13.2,0l-0.2,0.1l-0.1,0l-3.6-1.4
		c-0.7-0.2-1.5-0.1-2.1,0.5c-0.6,0.5-0.8,1.3-0.6,2.1l0.7,2.6L37,20c-1.1-0.5-2.3-0.7-3.6-0.7c-1.4,0-2.9,0.3-4.2,1
		c-1.1,0.5-2,1.4-2.3,2.6c-0.9,3.2,2.7,6.3,6.4,7.8l0.2,0.1l0,1c0,3.5,0,5.2,1.9,8.1c1.1,1.5,1.6,3.4,1.5,5.2c0,4,3.8,9.7,9.8,9.7
		h0.6c1.2,0.2,3.4,0,3.8,0l0,0h2.3c6,0,9.8-5.8,9.8-9.8c-0.2-1.9,0.4-3.7,1.5-5.2c1.9-2.9,1.9-4.6,1.9-8.1l0-1l0.2-0.1
		c1.3-0.6,2.6-1.3,3.7-2.2C71.9,27.2,72.9,25.8,72.9,25.6z M60.6,45.1c0,2.5-2.7,7.2-7.2,7.2h-6.8c-4.4,0-7.2-4.6-7.2-7.2v-0.9
		l0.3-0.1c2.3-0.6,3.3-1.6,4.3-2.4c0.1-0.1,0.3-0.2,0.4-0.4c1.1-1,2.4-2.2,5.6-2.2c3.2,0,4.5,1.2,5.6,2.2c0.1,0.1,0.3,0.3,0.4,0.4
		c1,0.8,1.9,1.7,4.2,2.4l0.3,0.1V45.1z M70.5,24.8c-1.3,1.7-3.1,3.1-5.1,3.8c-0.8,0.3-1.4,1-1.4,1.9l0,1.2c0,3.5,0,4.6-1.5,6.8
		c-0.6,0.9-1.1,1.8-1.4,2.8l-0.1,0.4l-0.4-0.1c-1.3-0.4-2.2-1.1-3-1.9c-0.1-0.1-0.3-0.2-0.4-0.4c-1.4-1.3-3-2.7-7.1-2.7
		c-4.1,0-5.7,1.4-7.1,2.7c-0.1,0.1-0.3,0.3-0.4,0.4c-0.9,0.7-1.7,1.4-3,1.9l-0.4,0.1L39,41.3c-0.3-1-0.8-1.9-1.4-2.7
		c-1.5-2.4-1.5-3.7-1.5-6.8c0-0.4,0-0.9,0-1.4c0-0.8-0.6-1.6-1.4-1.9c-2.1-0.7-3.8-2-5.2-3.8c-0.2-0.4-0.3-0.8-0.2-1.3
		c0.1-0.4,0.4-0.7,0.8-0.9c2.6-1.3,5.8-0.9,8.1,1c0.6,0.4,1.3,0.3,1.9-0.1c0.6-0.4,0.8-1.1,0.6-1.8L39.7,18l1.4,0.6
		c1.4,0.6,2.1,0.9,3.2,0.4c3.6-1.8,7.9-1.8,11.5,0c0.6,0.3,1.4,0.3,2.1,0l2.4-1l-1.1,3.7c-0.2,0.7,0.1,1.4,0.6,1.8
		c0.6,0.4,1.3,0.4,1.9,0c2.2-1.9,5.4-2.2,8.1-1c0.4,0.2,0.7,0.5,0.8,0.9C70.8,23.9,70.7,24.4,70.5,24.8L70.5,24.8z"/>
</g>
</svg>
