<?xml version="1.0" encoding="utf-8"?>
<!-- Generator: Adobe Illustrator 23.0.3, SVG Export Plug-In . SVG Version: 6.00 Build 0)  -->
<svg version="1.1" id="Layer_1" xmlns="http://www.w3.org/2000/svg" x="0px"
     y="0px"
     viewBox="0 0 70 70" style="enable-background:new 0 0 70 70;" xml:space="preserve">
<g>
	<path d="M41.6,46.9c-1.7,0-3.9,0.8-3.7,4.4c0,0.8,0.3,1.5,1.2,1.8c0.4,0.1,1.4,0,1.4-1c0,0,0-0.6,0.4-1.1c0.4-0.6,1.2-0.4,1.2-0.4
		c1.4,0.3,1.9-0.6,1.9-1.7c0-0.7-0.4-1.2-0.8-1.5C42.9,47.2,42.3,46.9,41.6,46.9z"/>
    <path d="M28.3,46.9c1.7,0,3.9,0.8,3.7,4.4c0,0.8-0.3,1.5-1.2,1.8c-0.4,0.1-1.4,0-1.4-1c0,0,0-0.6-0.4-1.1c-0.4-0.6-1.2-0.4-1.2-0.4
		c-1.4,0.3-1.9-0.6-1.9-1.7c0-0.7,0.4-1.2,0.8-1.5C27.1,47.2,27.8,46.9,28.3,46.9z"/>
    <circle id="Oval_2_" cx="23.2" cy="32.7" r="2.4"/>
    <circle cx="46.8" cy="32.7" r="2.4"/>
    <path d="M66.7,22c0.7-1.4,0.7-2.9,0.1-4.3s-1.7-2.6-3-3.2c-3.3-1.7-7.3-1.8-10.8-0.4l-1,0.4l1.1-3.6c0.3-1-0.1-2.1-1-2.9
		c-0.8-0.7-1.9-1-2.9-0.6l-4.8,1.9l-0.3-0.1c-5.8-2.8-12.5-2.8-18.3,0l-0.3,0.1h-0.1l-5-1.9c-1-0.3-2.1-0.1-2.9,0.7
		c-0.8,0.7-1.1,1.8-0.8,2.9l1,3.6L17,14.3c-1.5-0.7-3.2-1-5-1c-1.9,0-4,0.4-5.8,1.4c-1.5,0.7-2.8,1.9-3.2,3.6
		c-1.2,4.4,3.7,8.7,8.9,10.8l0.3,0.1v1.4c0,4.8,0,7.2,2.6,11.2c1.5,2.1,2.2,4.7,2.1,7.2c0,5.5,5.3,13.4,13.6,13.4h0.8
		c1.7,0.3,4.7,0,5.3,0l0,0h3.2c8.3,0,13.6-8,13.6-13.6c-0.3-2.6,0.6-5.1,2.1-7.2c2.6-4,2.6-6.4,2.6-11.2v-1.4l0.3-0.1
		c1.8-0.8,3.6-1.8,5.1-3C65.3,24.2,66.7,22.3,66.7,22z M49.7,49c0,3.5-3.7,10-10,10h-9.4c-6.1,0-10-6.4-10-10v-1.2l0.4-0.1
		c3.2-0.8,4.6-2.2,5.9-3.3c0.1-0.1,0.4-0.3,0.6-0.6c1.5-1.4,3.3-3,7.7-3s6.2,1.7,7.7,3c0.1,0.1,0.4,0.4,0.6,0.6
		c1.4,1.1,2.6,2.4,5.8,3.3l0.4,0.1V49H49.7z M63.4,20.9c-1.8,2.4-4.3,4.3-7.1,5.3c-1.1,0.4-1.9,1.4-1.9,2.6v1.7c0,4.8,0,6.4-2.1,9.4
		c-0.8,1.2-1.5,2.5-1.9,3.9l-0.1,0.6l-0.6-0.1c-1.8-0.6-3-1.5-4.2-2.6c-0.1-0.1-0.4-0.3-0.6-0.6c-1.9-1.8-4.2-3.7-9.8-3.7
		s-7.9,1.9-9.8,3.7c-0.1,0.1-0.4,0.4-0.6,0.6c-1.2,1-2.4,1.9-4.2,2.6L20,44.3l-0.3-0.6c-0.4-1.4-1.1-2.6-1.9-3.7
		c-2.1-3.3-2.1-5.1-2.1-9.4c0-0.6,0-1.2,0-1.9c0-1.1-0.8-2.2-1.9-2.6c-2.9-1-5.3-2.8-7.2-5.3c-0.3-0.6-0.4-1.1-0.3-1.8
		c0.1-0.6,0.6-1,1.1-1.2c3.6-1.8,8-1.2,11.2,1.4c0.8,0.6,1.8,0.4,2.6-0.1c0.8-0.6,1.1-1.5,0.8-2.5l-1.4-5l1.9,0.8
		c1.9,0.8,2.9,1.2,4.4,0.6c5-2.5,10.9-2.5,15.9,0c0.8,0.4,1.9,0.4,2.9,0l3.3-1.4l-1.5,5.1c-0.3,1,0.1,1.9,0.8,2.5
		c0.8,0.6,1.8,0.6,2.6,0c3-2.6,7.5-3,11.2-1.4c0.6,0.3,1,0.7,1.1,1.2C63.8,19.7,63.6,20.4,63.4,20.9L63.4,20.9z"/>
</g>
</svg>
