<?xml version="1.0" encoding="UTF-8"?>
<svg xmlns="http://www.w3.org/2000/svg" version="1.1" viewBox="0 0 841.89 153.991">
  <!-- Generator: Adobe Illustrator 28.7.2, SVG Export Plug-In . SVG Version: 1.2.0 Build 154)  -->
  <g>
    <g id="Layer_1">
      <g>
        <path d="M30.551,125.691v-13.712l10.1-2.141V44.221l-10.1-2.14v-13.779h47.357c7.759,0,14.492,1.361,20.2,4.08,5.708,2.721,10.11,6.5,13.21,11.338,3.099,4.839,4.649,10.468,4.649,16.889s-1.55,12.04-4.649,16.856c-3.1,4.816-7.503,8.562-13.21,11.237-5.708,2.676-12.441,4.014-20.2,4.014h-13.779v17.123l10.1,2.141v13.712H30.551ZM64.128,74.722h13.779c4.771,0,8.395-1.305,10.869-3.913,2.475-2.609,3.712-5.964,3.712-10.067,0-4.236-1.237-7.714-3.712-10.435-2.475-2.719-6.098-4.08-10.869-4.08h-13.779v28.495Z" fill="#fff"/>
        <path d="M120.315,125.691v-13.712l10.1-2.141V44.221l-10.1-2.14v-13.846h47.892c7.714,0,14.403,1.227,20.066,3.679,5.663,2.453,10.033,5.942,13.11,10.468,3.077,4.526,4.615,9.889,4.615,16.087,0,5.708-1.55,11.015-4.648,15.919-3.1,4.906-7.347,8.84-12.742,11.806-5.396,2.966-11.55,4.426-18.461,4.381l-16.254-.201v19.465l10.1,2.141v13.712h-43.678ZM153.892,72.381h14.582c4.549,0,8.049-1.059,10.502-3.177,2.452-2.117,3.679-5.184,3.679-9.197,0-4.147-1.249-7.48-3.746-10-2.498-2.519-6.065-3.779-10.702-3.779h-14.314v26.153ZM181.986,125.691l-13.11-37.992,20.401-6.957,11.839,28.963,9.231,2.341v13.646h-28.361Z" fill="#fff"/>
        <path d="M263.121,127.095c-6.734,0-12.921-1.237-18.562-3.712-5.642-2.475-10.535-5.941-14.682-10.401-4.147-4.458-7.347-9.688-9.599-15.686-2.252-5.996-3.378-12.518-3.378-19.564v-1.539c0-7,1.125-13.488,3.378-19.464,2.251-5.975,5.44-11.192,9.565-15.652,4.124-4.458,8.997-7.937,14.615-10.435,5.619-2.497,11.794-3.746,18.528-3.746,6.599,0,12.73,1.249,18.394,3.746,5.663,2.498,10.624,5.976,14.883,10.435,4.258,4.459,7.569,9.677,9.933,15.652,2.363,5.976,3.545,12.464,3.545,19.464v1.539c0,7.047-1.182,13.568-3.545,19.564-2.364,5.998-5.664,11.228-9.9,15.686-4.237,4.46-9.187,7.927-14.849,10.401-5.664,2.475-11.772,3.712-18.327,3.712ZM263.121,109.303c4.905,0,9.097-1.314,12.575-3.946,3.479-2.631,6.131-6.31,7.96-11.037,1.828-4.726,2.742-10.255,2.742-16.588v-1.672c0-6.197-.926-11.649-2.776-16.354-1.851-4.704-4.515-8.372-7.993-11.003-3.478-2.63-7.692-3.946-12.642-3.946-5.217,0-9.488,1.294-12.809,3.879-3.323,2.587-5.786,6.221-7.392,10.903-1.605,4.682-2.408,10.19-2.408,16.521v1.672c0,6.333.813,11.873,2.441,16.622,1.627,4.749,4.124,8.428,7.491,11.036,3.367,2.608,7.636,3.913,12.81,3.913Z" fill="#fff"/>
        <path d="M316.098,125.691v-13.712l10.1-2.141V44.221l-10.1-2.14v-13.846h47.892c7.714,0,14.403,1.227,20.066,3.679,5.663,2.453,10.033,5.942,13.11,10.468,3.077,4.526,4.615,9.889,4.615,16.087,0,5.708-1.55,11.015-4.648,15.919-3.1,4.906-7.347,8.84-12.742,11.806-5.396,2.966-11.55,4.426-18.461,4.381l-16.254-.201v19.465l10.1,2.141v13.712h-43.678ZM349.675,72.381h14.582c4.549,0,8.049-1.059,10.502-3.177,2.452-2.117,3.679-5.184,3.679-9.197,0-4.147-1.249-7.48-3.746-10-2.498-2.519-6.065-3.779-10.702-3.779h-14.314v26.153ZM377.768,125.691l-13.11-37.992,20.401-6.957,11.839,28.963,9.231,2.341v13.646h-28.361Z" fill="#fff"/>
        <path d="M411.213,125.691v-13.712l10.1-2.141V44.221l-10.1-2.14v-13.779h43.612v13.779l-10.102,2.14v65.618l10.102,2.141v13.712h-43.612Z" fill="#fff"/>
        <path d="M460.175,125.691v-13.712l10.1-2.141V44.221l-10.1-2.14v-13.779h47.356c7.76,0,14.492,1.361,20.2,4.08,5.708,2.721,10.111,6.5,13.211,11.338,3.099,4.839,4.648,10.468,4.648,16.889s-1.55,12.04-4.648,16.856c-3.1,4.816-7.503,8.562-13.211,11.237s-12.44,4.014-20.2,4.014h-13.778v17.123l10.1,2.141v13.712h-43.678ZM493.753,74.722h13.778c4.771,0,8.395-1.305,10.87-3.913,2.475-2.609,3.712-5.964,3.712-10.067,0-4.236-1.237-7.714-3.712-10.435-2.476-2.719-6.099-4.08-10.87-4.08h-13.778v28.495Z" fill="#fff"/>
        <path d="M549.94,125.691v-13.712l10.1-2.141V44.221l-10.1-2.14v-13.779h77.791v28.093h-17.726l-.535-10.033h-25.952v20h31.103v17.993h-31.103v23.21h27.224l.535-10.501h17.524v28.628h-78.861Z" fill="#fff"/>
        <path d="M680.104,127.095c-7.938,0-14.982-.759-21.137-2.273-6.153-1.516-12.285-4.37-18.395-8.562v-25.283h18.127l2.007,12.977c1.427,1.604,3.946,2.954,7.559,4.046,3.612,1.094,7.559,1.64,11.839,1.64,2.987,0,5.485-.368,7.492-1.104,2.006-.735,3.521-1.816,4.548-3.244,1.025-1.426,1.538-3.144,1.538-5.15,0-1.916-.479-3.634-1.438-5.15-.96-1.515-2.531-2.953-4.716-4.313-2.186-1.36-5.128-2.753-8.829-4.181-8.339-2.676-15.184-5.396-20.535-8.16-5.351-2.765-9.331-6.042-11.939-9.833-2.608-3.79-3.913-8.495-3.913-14.114,0-5.395,1.539-10.11,4.615-14.147,3.077-4.035,7.313-7.212,12.709-9.531,5.396-2.318,11.572-3.545,18.528-3.679,7.937-.177,14.96.614,21.069,2.375,6.109,1.762,11.505,4.426,16.188,7.993v23.478h-17.391l-2.743-13.043c-1.517-.758-3.679-1.449-6.488-2.074-2.809-.624-5.797-.937-8.963-.937-2.72,0-5.14.357-7.257,1.07-2.119.714-3.791,1.784-5.017,3.21-1.228,1.428-1.84,3.211-1.84,5.351,0,1.739.513,3.289,1.538,4.649,1.025,1.361,2.832,2.72,5.418,4.08,2.586,1.361,6.198,2.933,10.836,4.716,11.059,3.255,19.453,7.324,25.184,12.208,5.729,4.883,8.596,11.516,8.596,19.898,0,5.753-1.562,10.647-4.683,14.683-3.121,4.036-7.47,7.113-13.043,9.23-5.575,2.117-12.062,3.177-19.465,3.177Z" fill="#fff"/>
        <path d="M744.049,125.691v-13.712l10.167-2.141v-63.343h-15.05l-.602,10.501h-17.726v-28.695h90.5v28.695h-17.926l-.535-10.501h-15.184v63.343l10.167,2.141v13.712h-43.812Z" fill="#fff"/>
      </g>
    </g>
  </g>
</svg>