<?xml version="1.0" encoding="UTF-8"?>
<svg xmlns="http://www.w3.org/2000/svg" version="1.1" xmlns:xlink="http://www.w3.org/1999/xlink" viewBox="0 0 841.9 161">
  <defs>
    <clipPath id="clippath">
      <rect x="33.9" y="34.1" width="774.2" height="92.8" fill="none"/>
    </clipPath>
  </defs>
  <!-- Generator: Adobe Illustrator 28.7.1, SVG Export Plug-In . SVG Version: 1.2.0 Build 142)  -->
  <g>
    <g id="Layer_1">
      <g clip-path="url(#clippath)">
        <path d="M786.3,125.6v-12.7l-9.4-2v-58.7h14.1l.5,9.7h16.6v-26.6h-83.9v26.6h16.4l.6-9.7h13.9v58.7l-9.4,2v12.7h40.6ZM698.1,124c5.2-2,9.2-4.8,12.1-8.6,2.9-3.7,4.3-8.3,4.3-13.6,0-7.8-2.7-13.9-8-18.4-5.3-4.5-13.1-8.3-23.3-11.3-4.3-1.6-7.6-3.1-10-4.4-2.4-1.3-4.1-2.5-5-3.8-.9-1.3-1.4-2.7-1.4-4.3s.6-3.6,1.7-5c1.1-1.3,2.7-2.3,4.6-3,2-.7,4.2-1,6.7-1s5.7.3,8.3.9c2.6.6,4.6,1.2,6,1.9l2.5,12.1h16.1v-21.8c-4.3-3.3-9.3-5.8-15-7.4s-12.2-2.4-19.5-2.2c-6.4.1-12.2,1.3-17.2,3.4-5,2.2-8.9,5.1-11.8,8.8-2.9,3.7-4.3,8.1-4.3,13.1s1.2,9.6,3.6,13.1c2.4,3.5,6.1,6.6,11.1,9.1,5,2.6,11.3,5.1,19,7.6,3.4,1.3,6.2,2.6,8.2,3.9,2,1.3,3.5,2.6,4.4,4,.9,1.4,1.3,3,1.3,4.8s-.5,3.5-1.4,4.8c-1,1.3-2.4,2.3-4.2,3s-4.2,1-6.9,1c-4,0-7.6-.5-11-1.5-3.3-1-5.7-2.3-7-3.7l-1.9-12h-16.8v23.4c5.7,3.9,11.3,6.5,17,7.9,5.7,1.4,12.2,2.1,19.6,2.1s12.9-1,18-2.9M626.2,125.6v-26.5h-16.2l-.5,9.7h-25.2v-21.5h28.8v-16.7h-28.8v-18.5h24l.5,9.3h16.4v-26h-72.1v12.8l9.4,2v60.8l-9.4,2v12.7h73.1ZM494.7,52h12.8c4.4,0,7.8,1.3,10.1,3.8,2.3,2.5,3.4,5.7,3.4,9.7s-1.1,6.9-3.4,9.3c-2.3,2.4-5.6,3.6-10.1,3.6h-12.8v-26.4ZM504.1,125.6v-12.7l-9.4-2v-15.9h12.8c7.2,0,13.4-1.2,18.7-3.7,5.3-2.5,9.4-5.9,12.2-10.4,2.9-4.5,4.3-9.7,4.3-15.6s-1.4-11.2-4.3-15.6c-2.9-4.5-7-8-12.2-10.5-5.3-2.5-11.5-3.8-18.7-3.8h-43.9v12.8l9.4,2v60.8l-9.4,2v12.7h40.5ZM452.3,125.6v-12.7l-9.4-2v-60.8l9.4-2v-12.8h-40.4v12.8l9.4,2v60.8l-9.4,2v12.7h40.4ZM348.6,52h13.3c4.3,0,7.6,1.2,9.9,3.5,2.3,2.3,3.5,5.4,3.5,9.3s-1.1,6.6-3.4,8.5c-2.3,2-5.5,2.9-9.7,2.9h-13.5v-24.2ZM400.9,125.6v-12.6l-8.6-2.2-11-26.8-18.9,6.4,12.1,35.2h26.3ZM357.9,125.6v-12.7l-9.4-2v-18l15.1.2c6.4,0,12.1-1.3,17.1-4.1,5-2.7,8.9-6.4,11.8-10.9,2.9-4.5,4.3-9.5,4.3-14.7s-1.4-10.7-4.3-14.9c-2.9-4.2-6.9-7.4-12.1-9.7-5.2-2.3-11.4-3.4-18.6-3.4h-44.4v12.8l9.4,2v60.8l-9.4,2v12.7h40.5ZM250.2,106.8c-3.1-2.4-5.4-5.8-6.9-10.2-1.5-4.4-2.3-9.5-2.3-15.4v-1.5c0-5.9.7-11,2.2-15.3,1.5-4.3,3.8-7.7,6.8-10.1,3.1-2.4,7-3.6,11.9-3.6s8.5,1.2,11.7,3.7c3.2,2.4,5.7,5.8,7.4,10.2,1.7,4.4,2.6,9.4,2.6,15.2v1.5c0,5.9-.8,11-2.5,15.4-1.7,4.4-4.2,7.8-7.4,10.2-3.2,2.4-7.1,3.7-11.7,3.7s-8.8-1.2-11.9-3.6M279,123.5c5.2-2.3,9.8-5.5,13.8-9.6,3.9-4.1,7-9,9.2-14.5,2.2-5.6,3.3-11.6,3.3-18.1v-1.4c0-6.5-1.1-12.5-3.3-18-2.2-5.5-5.3-10.4-9.2-14.5-3.9-4.1-8.5-7.4-13.8-9.7-5.2-2.3-10.9-3.5-17-3.5s-12,1.2-17.2,3.5c-5.2,2.3-9.7,5.5-13.5,9.7-3.8,4.1-6.8,9-8.9,14.5-2.1,5.5-3.1,11.5-3.1,18v1.4c0,6.5,1,12.6,3.1,18.1,2.1,5.6,5.1,10.4,8.9,14.5,3.8,4.1,8.4,7.3,13.6,9.6,5.2,2.3,11,3.4,17.2,3.4s11.7-1.1,17-3.4M154.5,52h13.3c4.3,0,7.6,1.2,9.9,3.5,2.3,2.3,3.5,5.4,3.5,9.3s-1.1,6.6-3.4,8.5c-2.3,2-5.5,2.9-9.7,2.9h-13.5v-24.2ZM206.8,125.6v-12.6l-8.6-2.2-11-26.8-18.9,6.4,12.1,35.2h26.3ZM163.8,125.6v-12.7l-9.4-2v-18l15.1.2c6.4,0,12.1-1.3,17.1-4.1,5-2.7,8.9-6.4,11.8-10.9,2.9-4.5,4.3-9.5,4.3-14.7s-1.4-10.7-4.3-14.9c-2.9-4.2-6.9-7.4-12.1-9.7-5.2-2.3-11.4-3.4-18.6-3.4h-44.4v12.8l9.4,2v60.8l-9.4,2v12.7h40.5ZM65,52h12.8c4.4,0,7.8,1.3,10.1,3.8,2.3,2.5,3.4,5.7,3.4,9.7s-1.1,6.9-3.4,9.3c-2.3,2.4-5.7,3.6-10.1,3.6h-12.8v-26.4ZM74.3,125.6v-12.7l-9.4-2v-15.9h12.8c7.2,0,13.4-1.2,18.7-3.7,5.3-2.5,9.4-5.9,12.2-10.4,2.9-4.5,4.3-9.7,4.3-15.6s-1.4-11.2-4.3-15.6c-2.9-4.5-6.9-8-12.2-10.5-5.3-2.5-11.5-3.8-18.7-3.8h-43.9v12.8l9.4,2v60.8l-9.4,2v12.7h40.5Z" fill="#086fa6"/>
      </g>
    </g>
  </g>
</svg>