<?xml version="1.0" encoding="utf-8"?>
<!-- Generator: Adobe Illustrator 23.0.3, SVG Export Plug-In . SVG Version: 6.00 Build 0)  -->
<svg version="1.1" id="Layer_1" xmlns="http://www.w3.org/2000/svg" x="0px"
     y="0px"
     viewBox="0 0 100 70" style="enable-background:new 0 0 100 70;" xml:space="preserve">
<style type="text/css">
	.st0{fill:#FFFFFF;}
</style>
    <g>
	<g>
		<path class="st0" d="M26.2,28.9c0.2,0.1,0.4,0.1,0.6,0.1c0.2,0,0.4,0,0.6-0.1l4.9-2.1c0.8-0.4,1.2-1.3,0.9-2.2
			c-0.4-0.8-1.3-1.2-2.2-0.9l-1.2,0.5c3.8-8.5,12.2-14.2,21.7-14.2c10.8,0,20.2,7.3,22.9,17.8c0.2,0.7,0.9,1.2,1.6,1.2
			c0.1,0,0.3,0,0.4-0.1c0.9-0.2,1.4-1.1,1.2-2C74.7,15.1,63.9,6.8,51.6,6.8c-10.8,0-20.5,6.5-24.8,16.3l-0.6-1.3
			c-0.4-0.8-1.3-1.2-2.2-0.9c-0.8,0.4-1.2,1.3-0.9,2.2l2.1,4.9C25.5,28.4,25.8,28.7,26.2,28.9z"/>
        <path class="st0" d="M79.4,46.6l-2.1-4.9c-0.2-0.4-0.5-0.7-0.9-0.9c-0.4-0.2-0.9-0.2-1.3,0l-4.9,2.1c-0.8,0.4-1.2,1.3-0.9,2.2
			c0.4,0.8,1.3,1.2,2.2,0.9l1.4-0.6C69.2,54.1,60.6,59.9,51,59.9c-10.8,0-20.2-7.3-22.9-17.8c-0.2-0.9-1.1-1.4-2-1.2
			c-0.9,0.2-1.4,1.1-1.2,2C27.9,54.9,38.7,63.2,51,63.2c10.9,0,20.6-6.5,24.8-16.5l0.5,1.2c0.3,0.6,0.9,1,1.5,1c0.2,0,0.4,0,0.6-0.1
			C79.3,48.4,79.7,47.4,79.4,46.6z"/>
	</g>
        <path class="st0" d="M62.2,43.2l-2.6-6.3c1.1-0.7,2-1.6,2.6-2.6c0.8-1.2,1.2-2.6,1.2-4c0-1.6-0.4-2.9-1.2-4.1
		c-0.8-1.1-1.9-2-3.3-2.6c-1.4-0.6-3.1-0.9-5.1-0.9H41.7v3.5l2.6,0.5v16.6l-2.6,0.5v3.5h11.1v-3.5l-2.6-0.5v-4.9l4,0.1l3.1,8.9h7.2
		v-3.5L62.2,43.2z M50.2,33.8v-6.6h3.6c1.2,0,2.1,0.3,2.7,1c0.6,0.6,0.9,1.5,0.9,2.5c0,1-0.3,1.8-0.9,2.3c-0.6,0.5-1.5,0.8-2.7,0.8
		H50.2z"/>
</g>
</svg>
