<?xml version="1.0" encoding="utf-8"?>
<!-- Generator: Adobe Illustrator 23.0.3, SVG Export Plug-In . SVG Version: 6.00 Build 0)  -->
<svg version="1.1" id="Layer_1" xmlns="http://www.w3.org/2000/svg" xmlns:xlink="http://www.w3.org/1999/xlink" x="0px" y="0px"
	 viewBox="0 0 55 55" enable-background="new 0 0 55 55" xml:space="preserve">
<g>
	<path d="M33.4,27.7c-0.7-0.5-1.4-0.8-2.1-1.2c-0.3-0.1-0.6-0.3-0.8-0.4L30.2,26c-2.1-0.5-3.8,0.1-5.1,1.6c-0.8,0.9-1.9,1.6-2.9,2.2
		c-0.9,0.5-1.7,1-2.6,1.6c-0.4,0.3-0.8,0.6-1.2,1.1c-0.6,0.7-0.8,1.5-0.6,2.3c0.2,0.7,0.8,1.3,1.6,1.6c0.5,0.2,1.3,0.4,2.1,0.4
		c0,0,0.1,0,0.1,0c3.4-0.1,6.9-1,10.8-2.8c0.5-0.2,0.9-0.6,1.2-0.9c0.9-0.8,1.3-1.8,1.3-2.8C34.8,29.3,34.3,28.4,33.4,27.7z
		 M32.1,31.5c-0.2,0.2-0.5,0.4-0.7,0.5c-3.6,1.7-6.8,2.5-9.9,2.6c-0.4,0-0.8-0.1-1.3-0.3c-0.2-0.1-0.3-0.2-0.3-0.2
		c0,0,0-0.1,0.2-0.3c0.2-0.3,0.4-0.5,0.6-0.6c0.8-0.5,1.7-1,2.5-1.5c1.2-0.7,2.5-1.5,3.5-2.7c0.5-0.7,1.2-1,2-1c0.2,0,0.5,0,0.8,0.1
		c0.3,0.1,0.5,0.3,0.8,0.4c0.6,0.3,1.2,0.6,1.7,1c0.3,0.2,0.6,0.5,0.6,0.9C32.7,30.7,32.5,31.1,32.1,31.5z"/>
	<path d="M50.5,42.8c-0.9-1.4-2.2-2.5-3.8-3.3c-0.5-0.3-1.2-0.6-2-0.7c-3.1-0.3-6,0.9-8.5,3.5c-0.9,0.9-1.2,2.2-0.8,3.5
		c0.5,1.5,1.8,2.7,3.4,3c1.1,0.2,2.1,0.3,3.2,0.4c0.5,0,0.9,0.1,1.4,0.1l0.1,0l0.1,0c1.8-0.1,3.7-0.2,5.4-1.1c1.5-0.7,2-1.7,2.2-2.4
		C51.3,45.2,51.4,44.2,50.5,42.8z M49,45.3c-0.1,0.5-0.6,0.8-1,1c-1.3,0.7-2.9,0.8-4.5,0.9c-0.4,0-0.9-0.1-1.3-0.1
		c-1-0.1-2-0.2-2.9-0.4c-0.8-0.2-1.5-0.7-1.7-1.5c-0.1-0.3-0.1-0.9,0.3-1.3c1.9-1.9,3.9-2.9,6.1-2.9c0.2,0,0.4,0,0.7,0
		c0.4,0,0.8,0.2,1.2,0.4c1.3,0.7,2.3,1.5,3,2.6C48.9,44.4,49.1,44.9,49,45.3z"/>
	<path d="M18.3,41.9c-4.1-2.2-8.6-1.6-12.5,1.7l-0.1,0.1c-1.2,1.2-1.3,2.2-1.1,2.9s0.7,1.5,2.4,2l0.1,0c0.3,0.1,0.6,0.2,0.9,0.2
		c0,0,0,0,0,0c0.6,0,1.2,0,1.9,0c1.8,0,3.6,0,5.4-0.2c1.2-0.1,2.4-0.9,3.4-1.7c0.9-0.7,1.4-1.6,1.3-2.5C20,43.3,19.4,42.5,18.3,41.9
		z M17.5,45c-0.7,0.6-1.6,1.2-2.3,1.2c-1.7,0.2-3.5,0.2-5.2,0.2c-0.6,0-1.3,0-1.9,0c-0.1,0-0.2,0-0.3-0.1l-0.2,0
		C7,46.2,6.8,46,6.8,46c0,0,0,0,0,0c0,0,0.1-0.3,0.5-0.7c1.9-1.6,5.6-3.9,10-1.4c0.4,0.2,0.6,0.5,0.6,0.6
		C17.9,44.6,17.8,44.8,17.5,45z"/>
	<path d="M28.5,39.2c-2.2,0.3-4.4,1.2-6,3.2c-1.1,1.4-1.1,2.9-0.1,4.5c1.2,1.8,2.7,2.6,4.4,2.2c3-0.6,5.3-3.4,5.4-6.4
		C32.4,40.6,31.1,39.2,28.5,39.2z M30.4,42.5c-0.1,2.1-1.9,4.2-3.9,4.7c-1.3,0.3-1.9-0.7-2.5-1.5c-0.6-0.8-0.3-1.6,0.3-2.2
		c1.3-1.4,3-2,4.8-2.4C30.1,41,30.5,41.6,30.4,42.5z"/>
	<path d="M5.3,30.5C4.7,32.4,5,34,6.3,35c2.2,1.8,5.5,1.8,7.8,0.2c1.6-1.2,1.9-3,0.4-4.8C13,29,11,27.9,8.6,28
		C7,28,5.9,28.9,5.3,30.5z M13.4,31.9c0.7,0.6,0.5,1.2-0.2,1.7c-1.5,1.2-4.2,1.1-5.7-0.1c-1-0.8-0.6-1.8-0.4-2.7
		c0.2-0.9,1-1.1,1.8-1.1C10.6,30,12.1,30.8,13.4,31.9z"/>
	<path d="M40.7,28.6c-2.4,0.8-3,3.4-1.2,5.1c0.7,0.7,1.7,1.2,2.3,1.6c1.2,0.5,2.1,0.9,3,1.3c1.5,0.6,3,0.1,4.1-1.1
		c0.9-1,0.9-2.1,0.1-3.7C47.6,29.1,43.8,27.7,40.7,28.6z M47.6,34.2c-0.2,0.3-0.9,0.4-1.4,0.4c-1.1-0.2-2.2-0.6-3.2-0.9
		c-0.8-0.6-1.6-1.2-2.3-1.8c-0.5-0.5-0.5-1,0.3-1.3c1.8-0.7,5.5,0.6,6.4,2.3C47.6,33.2,47.8,33.9,47.6,34.2z"/>
	<path d="M40.8,14.8c-0.8,0-1.4,0.4-1.3,1.3c0,0.8,0.5,1.2,1.3,1.2c1,0,1.9,0,2.9,0c1,0,1.9,0,2.9,0c0.8,0,1.3-0.4,1.3-1.2
		c0-0.8-0.5-1.2-1.2-1.2C44.7,14.8,42.7,14.8,40.8,14.8z"/>
	<path d="M19.9,12.7c0.8,0,1.7,0,2.5,0c0,0,0,0,0,0c0.9,0,1.7,0,2.6,0c0.8,0,1.3-0.4,1.3-1.3c0-0.8-0.5-1.2-1.3-1.2
		c-1.7,0-3.4,0-5.2,0c-0.8,0-1.4,0.4-1.3,1.2C18.5,12.3,19.1,12.7,19.9,12.7z"/>
	<path d="M9.4,12.9C9.4,12.9,9.4,12.9,9.4,12.9c-0.6,0-1.2,0-1.8,0c-0.7,0-1.2,0.5-1.2,1.2c0,0.7,0.4,1.2,1.2,1.2c1.2,0,2.4,0,3.6,0
		c0.7,0,1.2-0.4,1.2-1.2c0-0.8-0.4-1.2-1.2-1.3C10.6,12.9,10,12.9,9.4,12.9z"/>
	<path d="M29.2,15.8c-0.6,0-1.1,0-1.7,0c-0.7,0-1.1,0.5-1.1,1.2c0,0.7,0.3,1.2,1.1,1.2c1.1,0.1,2.3,0.1,3.4,0c0.7,0,1.1-0.5,1-1.2
		c0-0.7-0.4-1.1-1.1-1.1C30.3,15.7,29.7,15.8,29.2,15.8z"/>
	<path d="M34.7,13.5c0.7-0.1,1.3-0.4,1.4-1.2c0-0.8-0.5-1.2-1.3-1.3c-0.5,0-0.9,0-1.4,0c-0.7,0.1-1.2,0.4-1.2,1.2
		c0,0.8,0.5,1.1,1.2,1.2c0.3,0,0.5,0,0.8,0c0,0,0,0,0,0C34.3,13.5,34.5,13.5,34.7,13.5z"/>
	<path d="M17.5,20c0.8,0,1.3-0.4,1.3-1.2c0-0.8-0.5-1.2-1.3-1.2c-0.5,0-1.1,0-1.6,0c-0.7,0-1,0.5-1.1,1.1c0,0.7,0.3,1.1,1,1.3
		c0.3,0.1,0.6,0,0.9,0c0,0,0,0,0,0C17,20,17.2,20,17.5,20z"/>
	<path d="M5.2,24.4c1.2,0.5,2.6,1,5.2,1c1.7,0,3.8-0.2,6.7-0.8c1.2-0.2,2.2-0.5,3.2-0.8c3.3-1,6.2-1.8,16.9,0.7
		c4,0.9,6.3,1,11.3,0.5c0.6-0.1,1-0.6,1-1.2c-0.1-0.6-0.6-1-1.2-1c-4.8,0.5-6.9,0.4-10.6-0.5c-11.3-2.6-14.4-1.7-18-0.6
		c-0.9,0.3-1.9,0.5-3,0.8c-6.9,1.3-9,0.5-10.7-0.1l-0.5-0.2c-0.6-0.2-1.2,0.1-1.4,0.6c-0.2,0.6,0.1,1.2,0.6,1.4L5.2,24.4z"/>
	<path d="M4.8,7.8h43.8c0.6,0,1.1-0.5,1.1-1.1s-0.5-1.1-1.1-1.1H4.8c-0.6,0-1.1,0.5-1.1,1.1S4.2,7.8,4.8,7.8z"/>
</g>
</svg>
